<?xml version="1.0" encoding="UTF-8"?>
<svg version="1.1" xmlns="http://www.w3.org/2000/svg" width="500" height="500">
<path d="M0 0 C4.63142826 1.45017923 8.72867705 1.98816165 13.58203125 1.9296875 C15.04576172 1.91615234 15.04576172 1.91615234 16.5390625 1.90234375 C17.27511719 1.89074219 18.01117188 1.87914063 18.76953125 1.8671875 C19.42953125 -0.1128125 20.08953125 -2.0928125 20.76953125 -4.1328125 C24.06953125 -4.1328125 27.36953125 -4.1328125 30.76953125 -4.1328125 C30.76953125 3.7871875 30.76953125 11.7071875 30.76953125 19.8671875 C37.88003101 20.22182526 37.88003101 20.22182526 43.76953125 17.8671875 C44.79258073 16.21456911 45.79569179 14.54927385 46.76953125 12.8671875 C47.75953125 12.8671875 48.74953125 12.8671875 49.76953125 12.8671875 C49.76953125 29.6971875 49.76953125 46.5271875 49.76953125 63.8671875 C48.77953125 63.8671875 47.78953125 63.8671875 46.76953125 63.8671875 C46.56199219 62.85140625 46.35445312 61.835625 46.140625 60.7890625 C43.67497154 49.50099276 40.12279527 40.22045152 31.76953125 31.8671875 C31.43953125 39.1271875 31.10953125 46.3871875 30.76953125 53.8671875 C27.46953125 53.8671875 24.16953125 53.8671875 20.76953125 53.8671875 C20.67478516 52.59488281 20.67478516 52.59488281 20.578125 51.296875 C19.22169433 38.30369699 14.48297221 27.24316542 4.89453125 18.07421875 C-2.44336213 13.9061874 -13.4835095 14.33922841 -21.4609375 16.05859375 C-33.25849821 19.50301557 -41.46361187 27.04047583 -47.98046875 37.3671875 C-66.09875975 70.78346949 -65.67950483 118.12562483 -55.23046875 153.8671875 C-52.78301136 161.31125457 -49.99631612 168.57477964 -45.23046875 174.8671875 C-33.48343189 178.78286645 -18.68428078 175.5928315 -7.85546875 170.4921875 C-3.84083945 168.36869387 -0.63685331 165.84777399 2.76953125 162.8671875 C3.42953125 162.8671875 4.08953125 162.8671875 4.76953125 162.8671875 C5.02992188 162.30257812 5.2903125 161.73796875 5.55859375 161.15625 C6.88388245 158.65102684 8.45042986 156.51331905 10.14453125 154.2421875 C18.6089041 142.22313001 19.90254965 129.21801451 20.76953125 114.8671875 C24.06953125 114.8671875 27.36953125 114.8671875 30.76953125 114.8671875 C31.09953125 134.9971875 31.42953125 155.1271875 31.76953125 175.8671875 C42.12284682 161.07673668 44.77422566 149.38761054 46.76953125 131.8671875 C47.75953125 131.8671875 48.74953125 131.8671875 49.76953125 131.8671875 C49.76953125 152.9871875 49.76953125 174.1071875 49.76953125 195.8671875 C48.77953125 195.8671875 47.78953125 195.8671875 46.76953125 195.8671875 C46.21265625 194.8978125 45.65578125 193.9284375 45.08203125 192.9296875 C43.00005181 189.48998559 43.00005181 189.48998559 38.95703125 188.9921875 C35.23536186 188.76198115 31.49723013 188.85819426 27.76953125 188.8671875 C31.44879522 199.46577466 35.13331654 209.97237893 40.08203125 220.0546875 C45.20523425 230.56485995 47.88533208 239.77763151 46.26953125 251.4921875 C43.91006558 256.80098525 39.75631884 259.93981602 34.94140625 263.046875 C31.88181796 264.20247489 29.15638642 264.16916539 25.89453125 264.1796875 C24.70085937 264.19644531 23.5071875 264.21320313 22.27734375 264.23046875 C16.90280028 263.67386236 12.98803735 261.69974287 9.51953125 257.5546875 C4.30107255 250.97014014 3.8496002 244.0476496 4.76953125 235.8671875 C5.79303776 232.11086664 7.25185933 228.61158228 8.81835938 225.05126953 C10.44476317 221.31671914 11.99026436 217.54837902 13.55126953 213.78613281 C14.43074578 211.67040259 15.3143786 209.55639426 16.20263672 207.44433594 C18.50936183 201.95638258 20.7254074 196.45846744 22.76953125 190.8671875 C21.61195313 191.21652344 20.454375 191.56585938 19.26171875 191.92578125 C17.72271286 192.38560618 16.18364718 192.84523102 14.64453125 193.3046875 C13.50371094 193.64983398 13.50371094 193.64983398 12.33984375 194.00195312 C11.5921875 194.22431641 10.84453125 194.44667969 10.07421875 194.67578125 C9.39343262 194.88001709 8.71264648 195.08425293 8.01123047 195.29467773 C-16.40632526 201.53070128 -40.73037159 195.396478 -62.47265625 184.17578125 C-65.17599802 182.89303409 -67.91878722 181.80035927 -70.71459961 180.73681641 C-82.79251161 176.13268797 -92.49278551 169.36715603 -102.23046875 160.8671875 C-102.91753906 160.27679688 -103.60460937 159.68640625 -104.3125 159.078125 C-121.21842524 143.44616968 -131.09406401 120.41847566 -132.35473633 97.61987305 C-133.32399634 68.77913625 -125.24860103 44.81715078 -105.60205078 23.32470703 C-91.47346992 8.31088934 -73.46348875 -1.33532376 -53.23046875 -5.1328125 C-52.19019531 -5.32810547 -52.19019531 -5.32810547 -51.12890625 -5.52734375 C-33.63756265 -8.05987419 -16.64719367 -5.51344797 0 0 Z M-64.68359375 19.83984375 C-66.90106963 22.74608108 -68.64634263 25.56692475 -70.23046875 28.8671875 C-69.90046875 29.5271875 -69.57046875 30.1871875 -69.23046875 30.8671875 C-68.65941406 30.43148437 -68.08835937 29.99578125 -67.5 29.546875 C-51.91682835 18.10104781 -34.47478671 13.09484901 -15.35546875 12.3046875 C-14.3809375 12.26150391 -13.40640625 12.21832031 -12.40234375 12.17382812 C-10.01184073 12.06836476 -7.62124431 11.96624575 -5.23046875 11.8671875 C-6.94287808 8.44236885 -10.66312215 8.01995669 -14.13671875 6.8203125 C-34.15545382 0.65292442 -51.01712359 3.50903881 -64.68359375 19.83984375 Z M-98.54296875 27.6796875 C-116.04038203 45.54718871 -124.49128097 67.52697112 -124.47924805 92.3894043 C-124.15795941 116.5507719 -114.15045586 137.06669182 -97.23046875 153.8671875 C-94.2935663 156.61310641 -91.3097422 159.28211843 -88.23046875 161.8671875 C-88.23046875 158.4300128 -89.28928397 156.99473891 -91.12670898 154.18481445 C-104.52407061 133.6854936 -108.49605569 108.42776392 -103.64086914 84.51147461 C-100.67354481 71.37945088 -94.79395088 58.78170143 -86.66796875 48.0546875 C-83.19947962 43.30386163 -81.42651424 38.40209602 -79.49975586 32.90893555 C-76.04776615 23.24953068 -70.63348969 14.84164581 -64.23046875 6.8671875 C-76.57679518 6.8671875 -90.20307221 19.49937412 -98.54296875 27.6796875 Z M14.01953125 10.3671875 C12.82070312 10.50640625 12.82070312 10.50640625 11.59765625 10.6484375 C10.69273437 10.75671875 10.69273437 10.75671875 9.76953125 10.8671875 C11.48751898 13.705602 12.83971581 15.54871371 16.0390625 16.64453125 C18.27773434 17.12752029 20.50275111 17.54266983 22.76953125 17.8671875 C22.76953125 15.2271875 22.76953125 12.5871875 22.76953125 9.8671875 C19.7509933 9.8671875 16.99872046 10.01669465 14.01953125 10.3671875 Z M20.76953125 23.8671875 C21.42953125 24.5271875 22.08953125 25.1871875 22.76953125 25.8671875 C22.76953125 25.2071875 22.76953125 24.5471875 22.76953125 23.8671875 C22.10953125 23.8671875 21.44953125 23.8671875 20.76953125 23.8671875 Z M21.76953125 150.8671875 C20.8644958 152.34925897 19.99676246 153.8541353 19.14453125 155.3671875 C16.52834542 159.83121333 13.60649174 163.58803303 10.08984375 167.37109375 C8.65925019 168.65958844 8.65925019 168.65958844 8.76953125 169.8671875 C15.69953125 170.3621875 15.69953125 170.3621875 22.76953125 170.8671875 C22.76953125 164.2671875 22.76953125 157.6671875 22.76953125 150.8671875 C22.43953125 150.8671875 22.10953125 150.8671875 21.76953125 150.8671875 Z M-7.23046875 181.8671875 C-16.19005331 184.3641209 -25.00632165 185.79607752 -34.23046875 186.8671875 C-26.22130051 193.55298198 -17.98674232 195.33821311 -7.64453125 194.6171875 C2.62366712 193.45082014 11.69111837 190.7744377 20.76953125 185.8671875 C20.93634234 182.95066576 20.93634234 182.95066576 20.76953125 179.8671875 C18.29501329 177.39266954 17.50515929 177.54335533 14.08203125 177.4921875 C6.66743702 177.61835206 -0.17503193 179.79908592 -7.23046875 181.8671875 Z M24.76953125 192.8671875 C24.49302734 194.03507813 24.49302734 194.03507813 24.2109375 195.2265625 C22.23473084 202.85032862 19.56806288 209.74174631 16.20703125 216.8671875 C11.48553534 226.97023491 7.55269116 237.51001335 8.76953125 248.8671875 C10.35525957 253.06936755 11.9415657 255.49120888 15.76953125 257.8671875 C15.76953125 256.8771875 15.76953125 255.8871875 15.76953125 254.8671875 C16.86265625 255.3621875 17.95578125 255.8571875 19.08203125 256.3671875 C22.5691937 258.05558656 22.5691937 258.05558656 25.76953125 257.8671875 C25.76953125 258.5271875 25.76953125 259.1871875 25.76953125 259.8671875 C23.78953125 259.8671875 21.80953125 259.8671875 19.76953125 259.8671875 C19.76953125 260.1971875 19.76953125 260.5271875 19.76953125 260.8671875 C27.0258396 261.34738438 32.69135146 261.15345108 38.76953125 256.8671875 C42.7596166 253.30359583 43.59069475 249.56613423 44.14453125 244.3046875 C43.80563508 234.32607805 39.10538564 225.25972402 34.78125 216.48486328 C31.12940273 208.89114891 28.88683271 201.00047533 26.76953125 192.8671875 C26.10953125 192.8671875 25.44953125 192.8671875 24.76953125 192.8671875 Z " fill="#3E3E3E" transform="translate(237.23046875,107.1328125)"/>
<path d="M0 0 C1.04446289 -0.01844971 2.08892578 -0.03689941 3.16503906 -0.0559082 C10.52977721 0.00504219 10.52977721 0.00504219 13.88671875 2.53125 C14.53060547 3.50578125 14.53060547 3.50578125 15.1875 4.5 C13.62902344 4.35691406 13.62902344 4.35691406 12.0390625 4.2109375 C-1.2761653 3.10106864 -12.61007366 3.79786753 -23.41796875 12.62890625 C-42.54364425 30.65507242 -46.9966406 58.31441326 -47.92260742 83.49414062 C-48.47109176 111.72835572 -45.79907197 138.06635757 -32.8125 163.5 C-41.51504029 162.26548903 -47.78367892 155.2152405 -52.8984375 148.48046875 C-66.28633151 127.63360521 -68.23175928 102.37028583 -68.125 78.25 C-68.12317719 77.39348846 -68.12135437 76.53697693 -68.11947632 75.6545105 C-68.07449223 63.09545091 -67.82783913 50.75794621 -64.8125 38.5 C-64.63025879 37.75234375 -64.44801758 37.0046875 -64.26025391 36.234375 C-61.28077519 24.52554635 -57.52403489 18.78825532 -47.02441406 12.45996094 C-32.24185199 3.7542194 -17.00514902 0.17984744 0 0 Z " fill="#FDFDFD" transform="translate(223.8125,118.5)"/>
<path d="M0 0 C0.33 0 0.66 0 1 0 C0.54749926 5.27520602 -0.07304407 10.45038294 -1.0234375 15.66015625 C-2.26931083 23.68110462 -2.30131283 31.61250935 -2.26074219 39.70947266 C-2.25007465 42.23234415 -2.26066855 44.75449449 -2.2734375 47.27734375 C-2.28252995 57.99937274 -1.51960489 68.38251859 0 79 C0.10012894 79.70017746 0.20025787 80.40035492 0.30342102 81.12174988 C3.09304878 100.32569301 10.87827674 115.00518206 23 130 C12.93300829 128.77604964 3.08882605 123.60312537 -3.203125 115.6171875 C-18.20581549 93.76544265 -24.60713468 67.9265378 -19.8125 41.625 C-16.81893179 26.87890474 -10.16006521 11.2851731 0 0 Z " fill="#FCFCFC" transform="translate(152,152)"/>
<path d="M0 0 C0.99 0 1.98 0 3 0 C3 21.12 3 42.24 3 64 C2.01 64 1.02 64 0 64 C-0.556875 63.030625 -1.11375 62.06125 -1.6875 61.0625 C-3.76947944 57.62279809 -3.76947944 57.62279809 -7.8125 57.125 C-11.53416939 56.89479365 -15.27230112 56.99100676 -19 57 C-15.32073603 67.59858716 -11.63621471 78.10519143 -6.6875 88.1875 C-1.564297 98.69767245 1.11580083 107.91044401 -0.5 119.625 C-2.85946567 124.93379775 -7.01321241 128.07262852 -11.828125 131.1796875 C-14.88771329 132.33528739 -17.61314483 132.30197789 -20.875 132.3125 C-22.06867188 132.32925781 -23.26234375 132.34601563 -24.4921875 132.36328125 C-29.86673097 131.80667486 -33.7814939 129.83255537 -37.25 125.6875 C-42.4684587 119.10295264 -42.91993105 112.1804621 -42 104 C-40.97649349 100.24367914 -39.51767192 96.74439478 -37.95117188 93.18408203 C-36.32476808 89.44953164 -34.77926689 85.68119152 -33.21826172 81.91894531 C-32.33878547 79.80321509 -31.45515265 77.68920676 -30.56689453 75.57714844 C-28.26016942 70.08919508 -26.04412385 64.59127994 -24 59 C-25.15757812 59.34933594 -26.31515625 59.69867188 -27.5078125 60.05859375 C-29.04681839 60.51841868 -30.58588407 60.97804352 -32.125 61.4375 C-32.88554687 61.66759766 -33.64609375 61.89769531 -34.4296875 62.13476562 C-35.17734375 62.35712891 -35.925 62.57949219 -36.6953125 62.80859375 C-37.37609863 63.01282959 -38.05688477 63.21706543 -38.75830078 63.42749023 C-61.12293209 69.13921539 -86.34272428 64.91012755 -106.25 53.6875 C-107.1575 53.130625 -108.065 52.57375 -109 52 C-106 51 -106 51 -102.79296875 51.921875 C-98.79706369 53.05768324 -95.45438742 53.20054463 -91.3125 53.25 C-84.44168853 53.48637565 -79.70549475 55.18483805 -73.6484375 58.5625 C-63.47891209 64.0822424 -51.05930891 62.39591816 -40.3125 59.3125 C-34.76789404 57.46657693 -29.73308565 54.95434667 -24.65625 52.07421875 C-21.59378808 50.83572312 -20.1092896 51.03679616 -17 52 C-17.08636719 51.12472656 -17.17273438 50.24945313 -17.26171875 49.34765625 C-16.92966736 45.10037205 -15.55271734 43.6515559 -12.8125 40.4375 C-3.21861894 28.36917054 -1.69268968 14.86320662 0 0 Z M-22 61 C-22.27650391 62.16789062 -22.27650391 62.16789062 -22.55859375 63.359375 C-24.53480041 70.98314112 -27.20146837 77.87455881 -30.5625 85 C-35.28399591 95.10304741 -39.21684009 105.64282585 -38 117 C-36.41427168 121.20218005 -34.82796555 123.62402138 -31 126 C-31 125.01 -31 124.02 -31 123 C-29.906875 123.495 -28.81375 123.99 -27.6875 124.5 C-24.20033755 126.18839906 -24.20033755 126.18839906 -21 126 C-21 126.66 -21 127.32 -21 128 C-22.98 128 -24.96 128 -27 128 C-27 128.33 -27 128.66 -27 129 C-19.74369165 129.48019688 -14.07817979 129.28626358 -8 125 C-4.00991465 121.43640833 -3.1788365 117.69894673 -2.625 112.4375 C-2.96389617 102.45889055 -7.66414561 93.39253652 -11.98828125 84.61767578 C-15.64012852 77.02396141 -17.88269854 69.13328783 -20 61 C-20.66 61 -21.32 61 -22 61 Z " fill="#FE6E60" transform="translate(284,239)"/>
<path d="M0 0 C5.47685859 -0.07489393 10.95341045 -0.12894902 16.43066406 -0.16479492 C18.28878989 -0.17975905 20.14688117 -0.20013773 22.00488281 -0.22631836 C47.78286088 -0.58010654 47.78286088 -0.58010654 56.625 6.25 C59.96532473 9.5694911 61.42469153 12.23315839 62 17 C61.89660547 21.68456767 61.58000367 25.98395655 59 30 C56.8359375 31.703125 56.8359375 31.703125 54.375 33.25 C53.55773437 33.77078125 52.74046875 34.2915625 51.8984375 34.828125 C51.27195312 35.21484375 50.64546875 35.6015625 50 36 C50.886875 36.495 51.77375 36.99 52.6875 37.5 C59.57484772 42.19371941 62.05747963 50.13603264 64.68164062 57.7199707 C66.29855504 62.12606248 68.04812 64.46881155 72 67 C74.68507329 67.78946609 74.68507329 67.78946609 77 68 C77 68.99 77 69.98 77 71 C73.93696422 71.08115993 70.87609185 71.14057409 67.8125 71.1875 C66.94818359 71.21263672 66.08386719 71.23777344 65.19335938 71.26367188 C59.2225594 71.33230176 55.82706695 70.62750929 51.33984375 66.45703125 C44.56142647 58.50796809 41.8579196 49.97231521 39 40 C35.37 39.34 31.74 38.68 28 38 C28.1407095 42.08356928 28.28734853 46.16677636 28.4375 50.25 C28.47681641 51.40886719 28.51613281 52.56773437 28.55664062 53.76171875 C28.59853516 54.87675781 28.64042969 55.99179687 28.68359375 57.140625 C28.72025146 58.16704102 28.75690918 59.19345703 28.79467773 60.25097656 C28.97282128 62.63610887 29.32777363 64.71299499 30 67 C32.31 67.33 34.62 67.66 37 68 C37 68.99 37 69.98 37 71 C24.79 71 12.58 71 0 71 C0 70.01 0 69.02 0 68 C1.134375 67.71125 2.26875 67.4225 3.4375 67.125 C4.613125 66.75375 5.78875 66.3825 7 66 C8.32953792 63.34092416 8.11986031 61.33434632 8.11352539 58.35693359 C8.11344986 57.17586029 8.11337433 55.99478699 8.11329651 54.77792358 C8.10555458 52.85757797 8.10555458 52.85757797 8.09765625 50.8984375 C8.0962413 49.59170074 8.09482635 48.28496399 8.09336853 46.93862915 C8.08954894 43.46323742 8.07972342 39.98788743 8.06866455 36.51251221 C8.05843843 32.96668055 8.05386833 29.42084215 8.04882812 25.875 C8.03810066 18.91664951 8.02103092 11.95832676 8 5 C5.36 4.34 2.72 3.68 0 3 C0 2.01 0 1.02 0 0 Z M9 3 C9.66 4.65 10.32 6.3 11 8 C11.26069641 10.69360352 11.26069641 10.69360352 11.2746582 13.62890625 C11.28419022 14.73355225 11.29372223 15.83819824 11.30354309 16.97631836 C11.30217598 18.75147827 11.30217598 18.75147827 11.30078125 20.5625 C11.30506638 21.78654541 11.3093515 23.01059082 11.31376648 24.27172852 C11.31950426 26.85725283 11.32001412 29.44279328 11.31567383 32.02832031 C11.31251174 35.98530551 11.33598866 39.94154459 11.36132812 43.8984375 C11.36360093 46.41145739 11.3643047 48.92447929 11.36328125 51.4375 C11.372491 52.62093994 11.38170074 53.80437988 11.39118958 55.02368164 C11.38496078 56.12832764 11.37873199 57.23297363 11.37231445 58.37109375 C11.37294388 59.33974365 11.3735733 60.30839355 11.3742218 61.30639648 C11 64 11 64 8 69 C14.93 69 21.86 69 29 69 C28.34 67.68 27.68 66.36 27 65 C26.7215271 62.16522217 26.7215271 62.16522217 26.68115234 58.85449219 C26.66128265 57.61350769 26.64141296 56.37252319 26.62094116 55.09393311 C26.60906576 53.74491555 26.59740285 52.39589611 26.5859375 51.046875 C26.56722093 49.66252494 26.54764715 48.27818622 26.5272522 46.89385986 C26.47597638 43.25747373 26.43632654 39.62105063 26.39910889 35.98449707 C26.35904055 32.27082203 26.30796116 28.55730017 26.2578125 24.84375 C26.16110707 17.56259723 26.07770348 10.28138489 26 3 C20.39 3 14.78 3 9 3 Z M28 3 C28 13.56 28 24.12 28 35 C37.31595266 36.09966862 37.31595266 36.09966862 40.5625 32.75 C44.15034086 25.88630444 44.39507715 16.70320565 42.2109375 9.33984375 C41.13557329 6.93312057 41.13557329 6.93312057 39 4 C35.26213521 2.57836298 35.26213521 2.57836298 28 3 Z M41 3 C41.73283203 4.4540625 41.73283203 4.4540625 42.48046875 5.9375 C44.35304606 10.31970564 44.41126758 14.2907618 44.3125 19 C44.31572266 19.76828125 44.31894531 20.5365625 44.32226562 21.328125 C44.2763322 26.23882557 43.55475738 30.34192212 42 35 C48.87517947 34.44998564 52.75445362 32.48191968 57.375 27.375 C59.58318401 22.78877167 59.78214046 19.00244 59 14 C56.77637717 8.99684863 53.86798984 6.92544111 49.0390625 4.74609375 C46.38971163 3.77669525 43.80260436 3.28026044 41 3 Z M41 35 C40.34 35.66 39.68 36.32 39 37 C39.43699219 37.66386719 39.87398438 38.32773437 40.32421875 39.01171875 C42.27042327 42.48222331 43.52083526 46.06794158 44.8125 49.8125 C47.44849056 57.11592468 50.35523666 62.84777225 56.3125 68 C60.20851456 69.44967984 63.89006231 69.24176104 68 69 C67.54109375 68.10539062 67.0821875 67.21078125 66.609375 66.2890625 C65.98854641 65.06823509 65.36883199 63.84684069 64.75 62.625 C64.42789551 61.98957275 64.10579102 61.35414551 63.77392578 60.69946289 C61.92549815 57.00400442 60.29742543 53.32271986 58.875 49.4375 C56.91963214 44.37018498 54.3761047 41.24745497 49.5 38.6875 C46.88285245 37.96778442 44.70113137 37.84564964 42 38 C41.67 37.01 41.34 36.02 41 35 Z " fill="#3C3C3C" transform="translate(289,306)"/>
<path d="M0 0 C11.22 0 22.44 0 34 0 C33.67 0.99 33.34 1.98 33 3 C32.01 3.33 31.02 3.66 30 4 C30.45896068 9.79208379 32.89926194 13.73640923 35.875 18.5625 C36.32230469 19.30435547 36.76960938 20.04621094 37.23046875 20.81054688 C39.06965592 23.85687016 40.92956795 26.88770169 42.8203125 29.90234375 C44 32 44 32 44 34 C44.66 34 45.32 34 46 34 C46.27634277 33.27167969 46.55268555 32.54335938 46.83740234 31.79296875 C47.93404513 29.15844682 49.17594166 26.78119584 50.6015625 24.3125 C51.09140625 23.44882812 51.58125 22.58515625 52.0859375 21.6953125 C53.11390565 19.89506371 54.14779291 18.09818224 55.1875 16.3046875 C55.67476563 15.44101562 56.16203125 14.57734375 56.6640625 13.6875 C57.11217285 12.90761719 57.5602832 12.12773437 58.02197266 11.32421875 C59.12122853 8.71190823 59.18562888 6.80616231 59 4 C56.525 3.01 56.525 3.01 54 2 C54 1.34 54 0.68 54 0 C60.93 0 67.86 0 75 0 C74.67 0.99 74.34 1.98 74 3 C72.783125 3.37125 71.56625 3.7425 70.3125 4.125 C60.22085197 7.73298744 55.63653236 23.10221031 51.04980469 32.05810547 C50 34 50 34 48 37 C47.55728596 41.31931498 47.6758597 45.66049526 47.6875 50 C47.67138672 51.20140625 47.65527344 52.4028125 47.63867188 53.640625 C47.63802734 54.79046875 47.63738281 55.9403125 47.63671875 57.125 C47.63373779 58.17945313 47.63075684 59.23390625 47.62768555 60.3203125 C47.78328226 63.01310503 47.78328226 63.01310503 49.35473633 64.82421875 C51.49212768 66.35169712 53.42271747 66.65171858 56 67 C56 67.99 56 68.98 56 70 C43.79 70 31.58 70 19 70 C19 69.01 19 68.02 19 67 C22.465 66.505 22.465 66.505 26 66 C29.61693594 52.82878574 28.94614759 38.99086555 22.28344727 27.05761719 C19.34366574 22.25137338 16.28332715 17.57841234 13 13 C12.45102051 12.21254395 11.90204102 11.42508789 11.33642578 10.61376953 C7.93340421 5.86022386 5.64433122 3.80618599 0 2 C0 1.34 0 0.68 0 0 Z M8 2 C8.99 3.485 8.99 3.485 10 5 C10.66 5 11.32 5 12 5 C12.38744385 6.07689087 12.38744385 6.07689087 12.78271484 7.17553711 C14.06553104 10.15205147 15.62227432 12.53617195 17.4765625 15.19140625 C27.77187556 30.73685976 31.12052416 42.31521323 29.57861328 61.38818359 C29 64 29 64 26 68 C33.26 68 40.52 68 48 68 C47.01 65.69 46.02 63.38 45 61 C44.80566406 58.41479492 44.80566406 58.41479492 45.015625 55.98046875 C45.80505215 38.53428031 40.09651279 27.75855943 30.58813477 13.68701172 C28.3298357 9.8661294 27 6.45567815 27 2 C20.73 2 14.46 2 8 2 Z M61 2 C61.33 2.99 61.66 3.98 62 5 C63.65 4.34 65.3 3.68 67 3 C67 2.67 67 2.34 67 2 C65.02 2 63.04 2 61 2 Z " fill="#3B3B3B" transform="translate(372,307)"/>
<path d="M0 0 C0.99 0 1.98 0 3 0 C3 21.12 3 42.24 3 64 C2.01 64 1.02 64 0 64 C-0.556875 63.030625 -1.11375 62.06125 -1.6875 61.0625 C-3.76947944 57.62279809 -3.76947944 57.62279809 -7.8125 57.125 C-9.20689267 57.04913248 -10.60356654 57.00777236 -12 57 C-12.68449219 56.98582031 -13.36898438 56.97164063 -14.07421875 56.95703125 C-15.71612386 56.94037907 -17.35836667 56.96579931 -19 57 C-19.33 55.68 -19.66 54.36 -20 53 C-19.01 53 -18.02 53 -17 53 C-17.08636719 51.96101563 -17.17273438 50.92203125 -17.26171875 49.8515625 C-16.94735982 45.22532515 -15.8023604 43.83797044 -12.8125 40.375 C-3.18125677 28.36513726 -1.6893235 14.83364878 0 0 Z " fill="#FEFEFE" transform="translate(284,239)"/>
<path d="M0 0 C0.99 0 1.98 0 3 0 C3 16.83 3 33.66 3 51 C2.01 51 1.02 51 0 51 C-0.31130859 49.47632813 -0.31130859 49.47632813 -0.62890625 47.921875 C-2.92231545 37.41319217 -5.92986772 27.11553811 -14.4375 19.875 C-17.34236439 16.61588386 -17.36915416 15.81062438 -17.375 11.625 C-17.27936843 10.08123327 -17.1641336 8.53799261 -17 7 C-16.40832031 7.02320312 -15.81664062 7.04640625 -15.20703125 7.0703125 C-8.83140788 7.28846365 -8.83140788 7.28846365 -3 5 C-1.97695052 3.34738161 -0.97383946 1.68208635 0 0 Z " fill="#FDFDFD" transform="translate(284,120)"/>
<path d="M0 0 C0.53625 0.13277344 1.0725 0.26554687 1.625 0.40234375 C6.39835135 1.47791799 10.91755992 2.07451482 15.81811523 2.19335938 C23.439083 2.40321867 28.57667147 3.78454468 35.3515625 7.5625 C45.61826355 13.13498671 58.12103519 11.36585726 68.9375 8.1875 C72.63639078 6.94696292 76.10042626 5.54491277 79.5625 3.75 C83 2 83 2 87 2 C86.515625 4.82421875 86.515625 4.82421875 85 8 C82.39786008 9.48377015 79.64879609 10.11825052 76.75 10.8125 C75.99847656 11.01552734 75.24695313 11.21855469 74.47265625 11.42773438 C50.44079961 17.78170694 24.42027867 14.90401168 2.75 2.6875 C1.8425 2.130625 0.935 1.57375 0 1 C0 0.67 0 0.34 0 0 Z " fill="#FBFBFB" transform="translate(175,290)"/>
<path d="M0 0 C4.455 0.99 4.455 0.99 9 2 C9 3.98 9 5.96 9 8 C4.7257442 6.4169423 2.73468206 3.49431596 0 0 Z " fill="#F8F8F8" transform="translate(251,123)"/>
<path d="M0 0 C0.66 0 1.32 0 2 0 C1.67 0.99 1.34 1.98 1 3 C0.67 2.01 0.34 1.02 0 0 Z " fill="#FF6E5F" transform="translate(250,359)"/>
</svg>
